<svg enable-background="new 0 0 512 512" viewBox="0 0 512 512" xmlns="http://www.w3.org/2000/svg"><path d="m173.559 95.458c0 6.571.995 12.907 2.806 18.889 5.98 1.81 12.316 2.806 18.889 2.806 35.945 0 65.085-29.14 65.085-65.085 0-6.571-.995-12.907-2.806-18.889-5.981-1.812-12.317-2.806-18.889-2.806-35.945 0-65.085 29.139-65.085 65.085z" fill="#9bf57d"/><path d="m257.532 33.179-81.166 81.166c5.98 1.812 12.316 2.807 18.889 2.807 35.945 0 65.085-29.14 65.085-65.085-.001-6.572-.996-12.908-2.808-18.888z" fill="#8ce16e"/><circle cx="351.458" cy="260.339" fill="#7f8499" r="21.695"/><path d="m397.482 315.042c-2.22 0-4.441-.847-6.135-2.543-3.39-3.39-3.39-8.882 0-12.272 21.983-21.991 21.983-57.788 0-79.78-3.39-3.39-3.39-8.882 0-12.272s8.882-3.39 12.272 0c28.754 28.763 28.754 75.559 0 104.322-1.696 1.697-3.916 2.545-6.137 2.545z" fill="#959cb5"/><path d="m428.16 345.72c-2.22 0-4.441-.847-6.135-2.543-3.39-3.39-3.39-8.882 0-12.272 38.907-38.915 38.907-102.22 0-141.135-3.39-3.39-3.39-8.882 0-12.272s8.882-3.39 12.272 0c45.678 45.678 45.678 120 0 165.678-1.696 1.696-3.917 2.544-6.137 2.544z" fill="#afb9d2"/><path d="m458.839 376.398c-2.22 0-4.441-.847-6.135-2.543-3.39-3.39-3.39-8.882 0-12.272 27.05-27.042 41.941-62.999 41.941-101.245s-14.89-74.203-41.941-101.246c-3.39-3.39-3.39-8.882 0-12.272s8.882-3.39 12.272 0c30.329 30.323 47.024 70.638 47.024 113.519s-16.695 83.195-47.026 113.516c-1.695 1.696-3.915 2.543-6.135 2.543z" fill="#c7cfe2"/><path d="m214.407 76.305c-3.39-3.39-8.882-3.39-12.272 0l-22.499 22.499c-13.322-38.288-33.852-56.551-35.128-57.651-3.619-3.119-9.102-2.721-12.237.916-3.127 3.627-2.721 9.11.916 12.237.398.347 40.373 35.702 40.373 114.915h17.356c0-19.522-2.308-36.516-5.8-51.352l29.291-29.291c3.389-3.392 3.389-8.883 0-12.273z" fill="#7dc86e"/><path d="m342.749 343.842c-1.685-1.264-3.663-2.052-5.737-2.42-38.63-6.836-67.995-40.49-67.995-81.083 0-34.385 21.057-63.835 50.978-76.196 6.635-2.741 7.675-11.803 1.687-15.766-17.089-11.31-37.118-16.513-55.919-16.513-45.559 0-53.785 14.989-83.525 14.989s-37.966-14.989-83.525-14.989-98.713 29.978-98.713 104.925c0 119.913 68.339 224.839 136.678 224.839 30.373 0 22.78-7.494 45.559-7.494s15.186 7.494 45.559 7.494c47.68 0 95.245-51.164 119.703-122.779 1.866-5.468-.129-11.542-4.75-15.007z" fill="#9bf57d"/><path d="m103.915 223.697c3.374-29.948 12.698-52.529 25.212-69.009-8.133-1.659-17.817-2.824-30.415-2.824-45.559 0-98.712 29.978-98.712 104.925 0 119.913 68.339 224.839 136.678 224.839 27.711 0 23.887-6.222 40.293-7.315-50.406-33.686-85.65-138.818-73.056-250.616z" fill="#8ce16e"/></svg>