<svg enable-background="new 0 0 512 512" height="512" viewBox="0 0 512 512" width="512" xmlns="http://www.w3.org/2000/svg"><g fill="#18d630"><path d="m504.5 101.5h-382.5v-37.5c0-3.033-1.827-5.768-4.63-6.929-2.801-1.16-6.028-.519-8.173 1.626l-107 107c-2.929 2.929-2.929 7.677 0 10.606l107 107c1.435 1.435 3.353 2.197 5.305 2.197.966 0 1.941-.187 2.869-.571 2.803-1.161 4.63-3.896 4.63-6.929v-37.5h22.5c4.142 0 7.5-3.358 7.5-7.5s-3.358-7.5-7.5-7.5h-30c-4.142 0-7.5 3.358-7.5 7.5v26.893l-88.894-88.893 88.893-88.893v26.893c0 4.142 3.358 7.5 7.5 7.5h382.5v109h-322.5c-4.142 0-7.5 3.358-7.5 7.5s3.358 7.5 7.5 7.5h330c4.143 0 7.5-3.358 7.5-7.5v-124c0-4.142-3.357-7.5-7.5-7.5z"/><path d="m384.5 410.5c-4.143 0-7.5 3.358-7.5 7.5 0 12.406-10.094 22.5-22.5 22.5s-22.5-10.093-22.5-22.5v-80c0-12.406 10.094-22.5 22.5-22.5s22.5 10.094 22.5 22.5c0 4.142 3.357 7.5 7.5 7.5s7.5-3.358 7.5-7.5c0-20.677-16.822-37.5-37.5-37.5s-37.5 16.823-37.5 37.5v80c0 20.677 16.822 37.5 37.5 37.5s37.5-16.822 37.5-37.5c0-4.142-3.357-7.5-7.5-7.5z"/><path d="m482 348v-40c0-4.142-3.357-7.5-7.5-7.5s-7.5 3.358-7.5 7.5v40c0 12.406-10.094 22.5-22.5 22.5h-22.5v-62.5c0-4.142-3.357-7.5-7.5-7.5s-7.5 3.358-7.5 7.5v140c0 4.142 3.357 7.5 7.5 7.5s7.5-3.358 7.5-7.5v-62.5h22.5c12.406 0 22.5 10.094 22.5 22.5v40c0 4.142 3.357 7.5 7.5 7.5s7.5-3.358 7.5-7.5v-40c0-12.254-5.909-23.153-15.026-30 9.117-6.847 15.026-17.746 15.026-30z"/><path d="m264.5 300.5c-20.678 0-37.5 16.823-37.5 37.5v110c0 4.142 3.358 7.5 7.5 7.5s7.5-3.358 7.5-7.5v-62.5h45v62.5c0 4.142 3.357 7.5 7.5 7.5s7.5-3.358 7.5-7.5v-110c0-20.677-16.822-37.5-37.5-37.5zm22.5 70h-45v-32.5c0-12.406 10.093-22.5 22.5-22.5 12.406 0 22.5 10.094 22.5 22.5z"/><path d="m212 348v-10c0-20.677-16.822-37.5-37.5-37.5h-30c-4.142 0-7.5 3.358-7.5 7.5v140c0 4.142 3.358 7.5 7.5 7.5h30c20.678 0 37.5-16.823 37.5-37.5v-10c0-12.253-5.907-23.153-15.023-30 9.116-6.847 15.023-17.747 15.023-30zm-15 60v10c0 12.406-10.093 22.5-22.5 22.5h-22.5v-55h22.5c12.407 0 22.5 10.094 22.5 22.5zm0-60c0 12.406-10.093 22.5-22.5 22.5h-22.5v-55h22.5c12.407 0 22.5 10.094 22.5 22.5z"/></g></svg>