<svg enable-background="new 0 0 512 512" height="512" viewBox="0 0 512 512" width="512" xmlns="http://www.w3.org/2000/svg"><g fill="#18d630"><path d="m256.432 252.496-71.743-7.972c-6.213-.7-10.553 6.432-7.082 11.637l13.253 19.879-13.253 19.879c-3.27 4.908.374 11.683 6.252 11.683h16.54c-.001.166-.008.333-.008.5 0 30.663 24.946 55.609 55.609 55.609 18.103 0 35.13-8.857 45.542-23.692.093-.132.172-.271.255-.406.065-.087.137-.166.198-.257 6.288-9.239 9.613-20.046 9.613-31.253.001-30.519-24.713-55.374-55.176-55.607zm-.432 96.185c-22.376 0-40.579-18.204-40.579-40.579 0-.167.014-.334.016-.501h52.61l18.462 27.237c-7.665 8.731-18.773 13.843-30.509 13.843zm38.745-28.479-16.493-24.331c-1.399-2.063-3.728-3.298-6.22-3.298h-74.131l8.243-12.364c1.682-2.525 1.682-5.813-.001-8.337l-7.086-10.629 56.114 6.235c.276.03.553.046.83.046 22.376 0 40.579 18.204 40.579 40.579-.001 4.146-.624 8.216-1.835 12.099z"/><path d="m288.063 364.712h-64.125c-17.403 0-31.562 14.159-31.562 31.562v88.172c0 4.151 3.364 7.515 7.515 7.515h112.219c4.151 0 7.515-3.364 7.515-7.515v-88.172c-.001-17.403-14.159-31.562-31.562-31.562zm-26.457 15.03-3.006 9.018h-5.199l-3.006-9.018zm-7.104 24.047h2.996l6.563 45.939-8.061 8.06-8.061-8.061zm50.093 73.143h-97.19v-80.658c0-9.116 7.417-16.532 16.532-16.532h10.615l5.742 17.226-7.765 54.353c-.335 2.342.453 4.703 2.125 6.376l16.031 16.031c2.896 2.895 7.732 2.895 10.628 0l16.031-16.031c1.672-1.673 2.46-4.035 2.125-6.376l-7.765-54.353 5.743-17.226h10.615c9.116 0 16.532 7.417 16.532 16.532v80.658z"/><path d="m511.989 227.722c-.118-4.004-3.498-7.291-7.504-7.291h-144.282c-4.086 0-7.515 3.427-7.515 7.515v96.188c0 4.151 3.364 7.515 7.515 7.515h21.041c4.151 0 7.515-3.364 7.515-7.515s-3.364-7.515-7.515-7.515h-13.526v-73.309l60.013 46.676c2.682 2.087 6.545 2.087 9.227 0l60.012-46.676v73.309h-81.659c-4.151 0-7.515 3.364-7.515 7.515s3.364 7.515 7.515 7.515h89.174c4.151 0 7.515-3.364 7.515-7.515v-96.188c0-.076-.009-.149-.011-.224zm-79.645 46.812-50.239-39.074h100.478z"/><path d="m257.002 20.039c-43.37 0-78.654 35.284-78.654 78.654s35.284 78.654 78.654 78.654c4.151 0 7.515-3.364 7.515-7.515s-3.364-7.515-7.515-7.515c-35.083 0-63.624-28.542-63.624-63.624s28.542-63.624 63.624-63.624c37.461 0 63.624 24.073 63.624 58.543 0 27.948-19.419 35.474-30.703 37.488v-67.977c0-4.151-3.364-7.515-7.515-7.515s-7.515 3.364-7.515 7.515v3.694c-5.156-3.87-11.298-6.128-17.892-6.128-18.152 0-32.921 17.048-32.921 38.003s14.769 38.003 32.921 38.003c6.595 0 12.737-2.258 17.892-6.128v8.775c0 4.151 3.364 7.515 7.515 7.515 2.777 0 17.313-.423 30.66-8.764 10.304-6.441 22.587-19.384 22.587-44.482.001-42.63-33.078-73.572-78.653-73.572zm0 101.628c-9.866 0-17.892-10.306-17.892-22.974s8.027-22.974 17.892-22.974 17.892 10.306 17.892 22.974-8.026 22.974-17.892 22.974z"/><path d="m111.718 164.321h-80.156c-17.403 0-31.562 14.159-31.562 31.562v160.313c0 17.403 14.159 31.562 31.562 31.562h80.157c17.403 0 31.562-14.159 31.562-31.562v-160.313c-.001-17.403-14.16-31.562-31.563-31.562zm-80.156 15.029h80.157c6.409 0 11.964 3.673 14.707 9.018h-109.571c2.742-5.345 8.298-9.018 14.707-9.018zm96.688 176.846c0 9.116-7.417 16.532-16.532 16.532h-80.156c-9.116 0-16.532-7.417-16.532-16.532v-8.517h113.22zm0-23.546h-113.221v-129.253h113.221z"/><path d="m72.141 352.689h-1.002c-4.151 0-7.515 3.364-7.515 7.515s3.364 7.515 7.515 7.515h1.002c4.151 0 7.515-3.364 7.515-7.515 0-4.152-3.364-7.515-7.515-7.515z"/><path d="m305.671 156.161c-2.002-.653-4.032-1.273-6.033-1.84-3.994-1.13-8.148 1.188-9.279 5.181-1.132 3.993 1.188 8.147 5.181 9.279 1.812.514 3.652 1.074 5.47 1.667.774.253 1.56.373 2.332.373 3.164 0 6.109-2.015 7.143-5.186 1.287-3.945-.867-8.187-4.814-9.474z"/><path d="m346.493 176.36c-4.17-2.869-8.523-5.569-12.936-8.023-3.628-2.017-8.203-.711-10.219 2.916s-.711 8.203 2.916 10.219c3.999 2.223 7.943 4.669 11.721 7.269 1.299.897 2.783 1.326 4.252 1.326 2.391 0 4.74-1.138 6.198-3.256 2.352-3.419 1.487-8.098-1.932-10.451z"/><path d="m374.143 200.479c-1.406-1.542-2.865-3.081-4.336-4.574-2.914-2.957-7.672-2.99-10.627-.077-2.956 2.914-2.99 7.671-.077 10.627 1.335 1.356 2.659 2.752 3.933 4.15 1.482 1.626 3.516 2.452 5.556 2.452 1.808 0 3.619-.647 5.061-1.961 3.066-2.796 3.285-7.549.49-10.617z"/><path d="m171.192 181.363c-2.479-3.329-7.185-4.022-10.515-1.544-1.649 1.227-3.326 2.526-4.983 3.862-3.231 2.605-3.738 7.335-1.134 10.567 1.484 1.842 3.659 2.798 5.855 2.798 1.655 0 3.321-.544 4.711-1.664 1.506-1.213 3.027-2.393 4.521-3.504 3.331-2.478 4.023-7.185 1.545-10.515z"/><path d="m198.875 166.682c-1.742-3.767-6.212-5.409-9.975-3.662-1.899.878-3.807 1.81-5.676 2.767-3.693 1.894-5.152 6.422-3.258 10.116 1.331 2.594 3.963 4.087 6.693 4.087 1.153 0 2.325-.268 3.423-.83 1.69-.866 3.417-1.708 5.132-2.503 3.767-1.743 5.406-6.209 3.661-9.975z"/><path d="m179.546 431.075c-1.609-1.003-3.222-2.052-4.792-3.117-3.433-2.328-8.107-1.436-10.438 1.998-2.331 3.435-1.436 8.108 1.998 10.438 1.732 1.175 3.51 2.332 5.285 3.439 3.48 2.166 8.187 1.068 10.352-2.405 2.194-3.523 1.118-8.158-2.405-10.353z"/><path d="m161.768 418.024c-2.064-1.77-4.1-3.619-6.054-5.496-2.994-2.876-7.749-2.778-10.625.212-2.876 2.993-2.779 7.75.212 10.625 2.156 2.071 4.405 4.112 6.68 6.066 3.109 2.667 7.932 2.295 10.597-.811 2.703-3.148 2.34-7.893-.81-10.596z"/><path d="m144.574 400.554c-1.216-1.465-2.416-2.968-3.566-4.468-2.525-3.295-7.242-3.921-10.536-1.395-3.294 2.525-3.919 7.242-1.395 10.536 1.268 1.655 2.592 3.314 3.934 4.93 2.616 3.15 7.432 3.595 10.583.98 3.194-2.651 3.632-7.389.98-10.583z"/><path d="m402.695 349.854c-3.929-1.329-8.197.776-9.528 4.709-.609 1.802-1.263 3.61-1.939 5.374-1.485 3.876.451 8.221 4.325 9.707 3.825 1.467 8.241-.503 9.707-4.325.747-1.95 1.468-3.947 2.142-5.938 1.333-3.93-.775-8.196-4.707-9.527z"/><path d="m373.302 405.531c-3.058-2.806-7.812-2.602-10.619.454-2.445 2.664-5.026 5.272-7.667 7.749-3.027 2.84-3.179 7.595-.341 10.623 2.8 2.986 7.635 3.14 10.623.341 2.914-2.733 5.759-5.61 8.458-8.548 2.806-3.058 2.603-7.811-.454-10.619z"/><path d="m392.163 376.807c-3.607-2.056-8.196-.795-10.248 2.814-1.79 3.145-3.723 6.261-5.743 9.261-2.318 3.443-1.407 8.113 2.035 10.43 3.4 2.289 8.144 1.36 10.43-2.035 2.23-3.311 4.362-6.75 6.338-10.222 2.055-3.607.796-8.195-2.812-10.248z"/><path d="m348.504 429.332c-2.356-3.419-7.036-4.279-10.451-1.925-1.564 1.076-3.168 2.137-4.771 3.151-3.507 2.219-4.551 6.861-2.332 10.369 2.189 3.459 6.904 4.523 10.369 2.332 1.767-1.118 3.537-2.287 5.26-3.476 3.418-2.355 4.279-7.035 1.925-10.451z"/></g></svg>