<svg height="512" viewBox="0 0 64 64" width="512" xmlns="http://www.w3.org/2000/svg"><g fill="#18d630"><path d="m8 27h10a1 1 0 0 0 1-1v-8a1 1 0 0 0 -1-1h-10a1 1 0 0 0 -1 1v8a1 1 0 0 0 1 1zm9-2h-4v-2h2v-2h-2v-2h4zm-8-6h2v6h-2z"/><path d="m45 31v2a3 3 0 0 1 0 6 2.91 2.91 0 0 1 -1.676-.537 4.936 4.936 0 0 0 .676-2.463 5 5 0 1 0 -5 5 4.955 4.955 0 0 0 3-1.023 4.993 4.993 0 1 0 3-8.977zm-6 8a3 3 0 1 1 3-3 3 3 0 0 1 -3 3z"/><path d="m7 35h2v2h-2z"/><path d="m11 35h13v2h-13z"/><path d="m7 39h25v2h-25z"/><path d="m28 18h2v2h-2z"/><path d="m32 18h9v2h-9z"/><path d="m28 22h22v2h-22z"/><path d="m6 46h1v1a4 4 0 0 0 4 4h46a4 4 0 0 0 4-4v-26a4 4 0 0 0 -4-4h-1v-1a4 4 0 0 0 -4-4h-46a4 4 0 0 0 -4 4v26a4 4 0 0 0 4 4zm50-4v-23h1a2 2 0 0 1 2 2v26a2 2 0 0 1 -2 2h-46a2 2 0 0 1 -2-2v-1h43a4 4 0 0 0 4-4zm-52-26a2 2 0 0 1 2-2h46a2 2 0 0 1 2 2v26a2 2 0 0 1 -2 2h-46a2 2 0 0 1 -2-2z"/><path d="m7 8h21v2h-21z"/><path d="m32 53h25v2h-25z"/><path d="m30 8h2v2h-2z"/></g></svg>