<svg enable-background="new 0 0 511.999 511.999" height="512" viewBox="0 0 511.999 511.999" width="512" xmlns="http://www.w3.org/2000/svg"><g fill="#18d630"><path d="m115.183 223.652h-74.551c-4.142 0-7.5 3.358-7.5 7.5v33.113c0 .007-.001.013-.001.019 0 .007.001.013.001.019v33.113c0 4.142 3.358 7.5 7.5 7.5h74.551c4.142 0 7.5-3.358 7.5-7.5v-66.266c0-4.14-3.358-7.498-7.5-7.498zm-57.2 66.266h-9.851v-18.133h9.851zm24.849-25.633v25.633h-9.849v-25.633c0-4.142-3.358-7.5-7.5-7.5h-17.351v-18.133h59.551v18.133h-17.351c-4.142 0-7.5 3.358-7.5 7.5zm24.852 25.632h-9.852v-18.133h9.852z"/><path d="m305.7 323.048c-9.066 0-17.794 3.047-24.859 8.511-6.874-5.328-15.491-8.511-24.841-8.511-22.406 0-40.634 18.228-40.634 40.634s18.228 40.634 40.634 40.634c9.351 0 17.967-3.183 24.841-8.511 7.065 5.465 15.793 8.511 24.859 8.511 22.406 0 40.634-18.228 40.634-40.634s-18.228-40.634-40.634-40.634zm-49.7 66.268c-14.134 0-25.634-11.5-25.634-25.634 0-14.135 11.499-25.634 25.634-25.634s25.634 11.5 25.634 25.634c0 14.135-11.5 25.634-25.634 25.634zm49.7 0c-5.37 0-10.552-1.695-14.856-4.755 3.673-6.106 5.79-13.249 5.79-20.879s-2.117-14.773-5.79-20.879c4.304-3.061 9.486-4.755 14.856-4.755 14.135-.001 25.634 11.499 25.634 25.634s-11.499 25.634-25.634 25.634z"/><path d="m57.199 331.335h-16.568c-4.142 0-7.5 3.358-7.5 7.5s3.358 7.5 7.5 7.5h16.568c4.142 0 7.5-3.358 7.5-7.5s-3.358-7.5-7.5-7.5z"/><path d="m98.616 331.335h-16.569c-4.142 0-7.5 3.358-7.5 7.5s3.358 7.5 7.5 7.5h16.568c4.143 0 7.501-3.358 7.501-7.5s-3.358-7.5-7.5-7.5z"/><path d="m140.032 331.335h-16.569c-4.142 0-7.5 3.358-7.5 7.5s3.358 7.5 7.5 7.5h16.569c4.142 0 7.5-3.358 7.5-7.5s-3.358-7.5-7.5-7.5z"/><path d="m181.448 331.335h-16.568c-4.142 0-7.5 3.358-7.5 7.5s3.358 7.5 7.5 7.5h16.568c4.142 0 7.5-3.358 7.5-7.5s-3.358-7.5-7.5-7.5z"/><path d="m90.332 364.467h-49.7c-4.142 0-7.5 3.358-7.5 7.5s3.358 7.5 7.5 7.5h49.7c4.142 0 7.5-3.358 7.5-7.5s-3.358-7.5-7.5-7.5z"/><path d="m164.883 364.467h-49.7c-4.142 0-7.5 3.358-7.5 7.5s3.358 7.5 7.5 7.5h49.7c4.142 0 7.5-3.358 7.5-7.5s-3.358-7.5-7.5-7.5z"/><path d="m90.332 389.316h-49.7c-4.142 0-7.5 3.358-7.5 7.5s3.358 7.5 7.5 7.5h49.7c4.142 0 7.5-3.358 7.5-7.5s-3.358-7.5-7.5-7.5z"/><path d="m487.934 74.551h-331.334c-13.27 0-24.066 10.796-24.066 24.066v91.9h-35.502c-4.142 0-7.5 3.358-7.5 7.5s3.358 7.5 7.5 7.5h258.368c4.999 0 9.066 4.067 9.066 9.066v198.8c0 4.999-4.067 9.066-9.066 9.066h-331.334c-4.999 0-9.066-4.067-9.066-9.066v-198.8c0-4.999 4.067-9.066 9.066-9.066h42.997c4.142 0 7.5-3.358 7.5-7.5s-3.358-7.5-7.5-7.5h-42.997c-13.27 0-24.066 10.796-24.066 24.066v198.8c0 13.27 10.796 24.066 24.066 24.066h331.333c13.27 0 24.066-10.796 24.066-24.066v-91.9h108.468c13.27 0 24.066-10.796 24.066-24.066v-198.8c.001-13.27-10.795-24.066-24.065-24.066zm-340.4 24.066c0-4.999 4.067-9.066 9.066-9.066h331.333c4.999 0 9.066 4.067 9.066 9.066v17.349h-349.465zm349.466 198.8c0 4.999-4.067 9.066-9.066 9.066h-108.468v-91.9c0-13.27-10.796-24.066-24.066-24.066h-207.866v-18.135h349.466zm0-140.035h-349.466v-26.416h349.466z"/><path d="m471.367 240.214h-33.135c-4.142 0-7.5 3.358-7.5 7.5v33.135c0 4.142 3.358 7.5 7.5 7.5h33.135c4.142 0 7.5-3.358 7.5-7.5v-33.135c0-4.142-3.358-7.5-7.5-7.5zm-7.5 33.135h-18.135v-18.135h18.135z"/></g></svg>