<svg height="512" viewBox="-3 0 487 487.9895" width="512" xmlns="http://www.w3.org/2000/svg"><g fill="#18d630"><path d="m440.496094 136h-4.257813c-24.648437.03125-47.679687-12.285156-61.34375-32.800781-8.078125-12.179688-23.042969-17.824219-37.152343-14.015625-14.109376 3.8125-24.195313 16.226562-25.039063 30.816406h-16.207031v-16c0-4.417969-3.582032-8-8-8-30.914063.039062-55.960938 25.089844-56 56v80c.039062 30.910156 25.085937 55.960938 56 56 4.417968 0 8-3.582031 8-8v-16h16.207031c.84375 14.589844 10.929687 27.003906 25.039063 30.816406 14.109374 3.808594 29.074218-1.835937 37.152343-14.015625 9.808594-14.683593 24.574219-25.347656 41.601563-30.03125v141.230469c0 4.417969 3.582031 8 8 8h8v80h16v-80h8c4.417968 0 8-3.582031 8-8v-152.207031c10.035156-7.492188 15.960937-19.269531 16-31.792969v-32c-.027344-22.082031-17.921875-39.972656-40-40zm-160 135.199219c-18.613282-3.824219-31.980469-20.199219-32-39.199219v-80c.019531-19 13.386718-35.375 32-39.199219zm16-135.199219h16v112h-16zm152 248h-16v-135.769531c1.246094-.0625 2.480468-.230469 3.742187-.230469h4.257813c2.683594.003906 5.367187-.265625 8-.800781zm16-176c0 13.253906-10.746094 24-24 24h-4.257813c-30.011719-.035156-58.046875 14.96875-74.664062 39.960938-4.414063 6.621093-12.640625 9.570312-20.257813 7.265624-7.613281-2.304687-12.820312-9.324218-12.820312-17.28125v-139.890624c0-7.957032 5.207031-14.976563 12.820312-17.28125 7.617188-2.304688 15.84375.644531 20.257813 7.265624 16.609375 25.007813 44.644531 40.027344 74.664062 40h4.257813c13.253906 0 24 10.746094 24 24zm0 0"/><path d="m416.496094 168h32v16h-32zm0 0"/><path d="m40.496094 440h4.253906c24.652344-.03125 47.679688 12.285156 61.34375 32.800781 8.078125 12.179688 23.042969 17.824219 37.152344 14.015625 14.109375-3.8125 24.195312-16.226562 25.039062-30.816406h16.210938v16c0 4.417969 3.582031 8 8 8 30.910156-.039062 55.960937-25.089844 56-56v-80c-.039063-30.910156-25.089844-55.960938-56-56-4.417969 0-8 3.582031-8 8v16h-16.210938c-.84375-14.589844-10.929687-27.003906-25.039062-30.816406-14.109375-3.808594-29.074219 1.835937-37.152344 14.015625-9.808594 14.683593-24.574219 25.347656-41.597656 30.03125v-141.230469c0-4.417969-3.582032-8-8-8h-8v-176h-16v176h-8c-4.417969 0-8 3.582031-8 8v152.207031c-10.039063 7.492188-15.964844 19.269531-16 31.792969v32c.023437 22.082031 17.917968 39.972656 40 40zm160-135.199219c18.613281 3.824219 31.976562 20.199219 32 39.199219v80c-.023438 19-13.386719 35.375-32 39.199219zm-16 135.199219h-16v-112h16zm-152-248h16v135.769531c-1.25.0625-2.480469.230469-3.746094.230469h-4.253906c-2.6875-.003906-5.367188.265625-8 .800781zm-16 176c0-13.253906 10.742187-24 24-24h4.253906c30.011719.035156 58.046875-14.96875 74.664062-39.960938 4.414063-6.621093 12.640626-9.570312 20.257813-7.265624 7.613281 2.304687 12.824219 9.324218 12.824219 17.28125v139.890624c.015625 7.964844-5.1875 15-12.804688 17.316407-7.621094 2.316406-15.859375-.632813-20.277344-7.261719-16.605468-25.007812-44.644531-40.027344-74.664062-40h-4.253906c-13.257813 0-24-10.746094-24-24zm0 0"/><path d="m32.496094 392h32v16h-32zm0 0"/></g></svg>