<svg enable-background="new 0 0 512.001 512.001" height="512" viewBox="0 0 512.001 512.001" width="512" xmlns="http://www.w3.org/2000/svg"><g fill="#18d630"><path d="m511.265 194.414c-1.899-5.84-7.166-9.933-13.295-10.33l-166.679-10.801-61.828-155.33c-2.271-5.707-7.794-9.453-13.937-9.453s-11.665 3.746-13.937 9.453l-61.828 155.333-165.736 10.799c-6.117.398-11.377 4.48-13.282 10.308-1.904 5.827-.071 12.227 4.629 16.163l127.578 106.797-41.291 162.045c-1.518 5.953.749 12.229 5.719 15.839 4.968 3.61 11.638 3.826 16.831.544l141.318-89.323 141.319 89.323c5.202 3.288 11.871 3.06 16.831-.544 4.97-3.611 7.236-9.887 5.719-15.839l-41.282-162.01 128.476-106.8c4.722-3.926 6.575-10.334 4.675-16.174zm-159.615 105.961c-4.451 3.7-6.376 9.63-4.946 15.238l34.316 134.675-117.479-74.254c-2.448-1.547-5.231-2.32-8.015-2.32s-5.566.773-8.015 2.32l-117.478 74.254 34.316-134.675c1.425-5.59-.483-11.502-4.906-15.206l-106.102-88.82 137.828-8.98c5.776-.376 10.82-4.043 12.961-9.421l51.396-129.125 51.397 129.125c2.142 5.38 7.188 9.047 12.967 9.421l138.567 8.979z"/><path d="m269.468 180.198c-2.272-5.707-7.794-9.452-13.937-9.452s-11.664 3.745-13.937 9.452l-20.106 50.504-54.262 3.518c-6.129.397-11.396 4.492-13.295 10.333s-.043 12.25 4.682 16.174l41.824 34.739-13.421 52.675c-1.517 5.952.748 12.227 5.717 15.838 4.967 3.61 11.635 3.828 16.83.547l45.967-29.04 45.953 29.039c5.192 3.281 11.859 3.065 16.83-.545 4.969-3.61 7.234-9.886 5.718-15.838l-13.421-52.675 41.824-34.739c4.725-3.924 6.58-10.333 4.682-16.174s-7.166-9.936-13.295-10.333l-54.247-3.517zm14.683 98.248c-4.454 3.7-6.381 9.632-4.951 15.243l6.458 25.349-22.113-13.974c-4.894-3.092-11.129-3.093-16.024-.001l-22.131 13.981 6.46-25.355c1.43-5.611-.497-11.543-4.951-15.243l-20.137-16.726 26.128-1.693c5.777-.375 10.824-4.041 12.966-9.42l9.677-24.307 9.677 24.307c2.142 5.379 7.188 9.045 12.966 9.42l26.114 1.693z"/><circle cx="256.001" cy="488.501" r="15"/><ellipse cx="455.723" cy="343.394" rx="15" ry="15" transform="matrix(.309 -.9511 .9511 .309 -11.6907 670.6978)"/><ellipse cx="379.435" cy="108.607" rx="15" ry="15" transform="matrix(.5878 -.809 .809 .5878 68.5423 351.7373)"/><ellipse cx="132.566" cy="108.607" rx="15" ry="15" transform="matrix(.809 -.5878 .5878 .809 -38.5199 98.6623)"/><ellipse cx="56.279" cy="343.394" rx="15" ry="15" transform="matrix(.9511 -.309 .309 .9511 -103.3616 34.1987)"/></g></svg>