<svg enable-background="new 0 0 512 512" viewBox="0 0 512 512" xmlns="http://www.w3.org/2000/svg"><g fill="#18d630" transform="translate(1 1)"><path d="m365.08-1h-220.16c-80.213 0-145.92 65.707-145.92 145.92v220.16c0 80.213 65.707 145.92 145.92 145.92h220.16c80.213 0 145.92-65.707 145.92-145.92v-220.16c0-80.213-65.707-145.92-145.92-145.92zm128.853 366.08c0 70.827-58.027 128.853-128.853 128.853h-220.16c-70.827 0-128.853-58.027-128.853-128.853v-220.16c0-70.827 58.027-128.853 128.853-128.853h220.16c70.827 0 128.853 58.027 128.853 128.853z"/><path d="m365.08 50.2h-220.16c-52.053 0-94.72 42.667-94.72 94.72v220.16c0 52.053 42.667 94.72 94.72 94.72h220.16c52.053 0 94.72-42.667 94.72-94.72v-220.16c0-52.053-42.667-94.72-94.72-94.72zm77.653 314.88c0 42.667-34.987 77.653-77.653 77.653h-220.16c-42.667 0-77.653-34.987-77.653-77.653v-220.16c0-42.667 34.987-77.653 77.653-77.653h220.16c42.667 0 77.653 34.987 77.653 77.653z"/><path d="m255 118.467c-75.093 0-136.533 61.44-136.533 136.533s61.44 136.533 136.533 136.533 136.533-61.44 136.533-136.533-61.44-136.533-136.533-136.533zm0 256c-65.707 0-119.467-53.76-119.467-119.467s53.76-119.467 119.467-119.467 119.467 53.76 119.467 119.467-53.76 119.467-119.467 119.467z"/><path d="m255 161.133c-52.053 0-93.867 41.813-93.867 93.867 0 52.053 41.813 93.867 93.867 93.867s93.867-41.813 93.867-93.867-41.814-93.867-93.867-93.867zm0 170.667c-42.667 0-76.8-34.133-76.8-76.8s34.133-76.8 76.8-76.8 76.8 34.133 76.8 76.8-34.133 76.8-76.8 76.8z"/><path d="m391.533 92.867c-14.507 0-25.6 11.093-25.6 25.6s11.093 25.6 25.6 25.6 25.6-11.093 25.6-25.6-11.093-25.6-25.6-25.6z"/></g></svg>