<svg enable-background="new 0 0 512 512" height="512" viewBox="0 0 512 512" width="512" xmlns="http://www.w3.org/2000/svg"><g fill="#18d630"><path d="m147.451 28.49h-56.797c-15.304 0-27.754 12.451-27.754 27.755s12.45 27.753 27.753 27.753h56.797c15.304 0 27.753-12.45 27.753-27.753s-12.449-27.755-27.752-27.755zm0 40.508h-56.797c-7.033 0-12.754-5.722-12.754-12.754 0-7.033 5.722-12.755 12.754-12.755h56.797c7.033 0 12.754 5.722 12.754 12.755-.001 7.032-5.722 12.754-12.754 12.754z"/><path d="m169.332 123.223c-22.431.001-40.68 18.25-40.68 40.68 0 22.431 18.25 40.68 40.68 40.68s40.68-18.249 40.68-40.68-18.25-40.68-40.68-40.68zm-.001 66.362c-14.16 0-25.68-11.521-25.68-25.68.001-14.161 11.521-25.68 25.68-25.68s25.68 11.521 25.68 25.68-11.52 25.68-25.68 25.68z"/><path d="m470.034 83.998c4.142 0 7.5-3.357 7.5-7.5v-26.345c0-27.652-22.497-50.149-50.15-50.149h-161.405c-.052 0-.102-.004-.154-.004h-192.987c-21.158 0-38.372 17.214-38.372 38.372v322.103 33.741c0 4.143 3.358 7.5 7.5 7.5s7.5-3.357 7.5-7.5v-33.741-322.103c0-12.888 10.485-23.372 23.372-23.372 2.034 0 192.586-.001 193.072.002 12.714 0 23.287 10.518 23.287 23.37-.043 455.757.109 435.335-.12 437.592-.059.58-.151 1.201-.257 1.779-.007.039-.014.079-.021.118-1.626 8.591-8.12 16.171-18.159 18.596-3.973.835-5.759.366-20.294.501v-8.215c0-10.752-8.747-19.5-19.5-19.5h-10.835c-4.142 0-7.5 3.357-7.5 7.5s3.358 7.5 7.5 7.5h10.835c2.439 0 4.5 2.061 4.5 4.5v8.215h-132.03v-8.215c0-2.439 2.061-4.5 4.5-4.5h77.194c4.142 0 7.5-3.357 7.5-7.5s-3.358-7.5-7.5-7.5h-77.194c-10.752 0-19.5 8.748-19.5 19.5v8.215h-15.48c-12.888 0-23.372-10.485-23.372-23.372 0-4.523 0-40.099 0-44.368 0-4.143-3.358-7.5-7.5-7.5s-7.5 3.357-7.5 7.5v44.368c0 21.159 17.214 38.372 38.372 38.372 211.396 0 195.104.306 200.34-.715h154.204c27.652 0 50.15-22.497 50.15-50.149v-349.597c0-4.143-3.358-7.5-7.5-7.5-4.143 0-7.5 3.357-7.5 7.5v349.595c0 19.382-15.769 35.149-35.15 35.149h-130.576c2.732-3.732 4.718-7.94 5.888-12h124.691c12.766 0 23.15-10.385 23.15-23.149v-410.939c0-12.766-10.386-23.149-23.15-23.149h-124.907c-1.364-4.39-3.504-8.439-6.247-12h131.154c19.383 0 35.15 15.769 35.15 35.149v26.345c.001 4.143 3.358 7.5 7.501 7.5zm-165.838-41.995h123.187c4.495 0 8.151 3.656 8.151 8.15v410.939c0 4.494-3.656 8.15-8.151 8.15h-123.187z"/></g></svg>