<svg enable-background="new 0 0 512 512" height="512" viewBox="0 0 512 512" width="512" xmlns="http://www.w3.org/2000/svg"><g fill="#18d630"><path d="m135.758 344.694c-4.142 0-7.5 3.358-7.5 7.5 0 9.125-7.424 16.548-16.549 16.548s-16.548-7.423-16.548-16.548 7.423-16.548 16.548-16.548c4.142 0 7.5-3.358 7.5-7.5s-3.358-7.5-7.5-7.5c-17.396 0-31.548 14.152-31.548 31.548s14.152 31.548 31.548 31.548 31.549-14.152 31.549-31.548c0-4.142-3.358-7.5-7.5-7.5z"/><path d="m448.387 344.694c-4.142 0-7.5 3.358-7.5 7.5 0 9.125-7.423 16.548-16.548 16.548s-16.548-7.423-16.548-16.548 7.423-16.548 16.548-16.548c4.142 0 7.5-3.358 7.5-7.5s-3.358-7.5-7.5-7.5c-17.396 0-31.548 14.152-31.548 31.548s14.152 31.548 31.548 31.548 31.548-14.152 31.548-31.548c0-4.142-3.358-7.5-7.5-7.5z"/><path d="m492.336 214.306-78.568-13.095-34.622-90.017h5.112c4.142 0 7.5-3.358 7.5-7.5s-3.358-7.5-7.5-7.5h-112.226c-12.976 0-23.532 10.557-23.532 23.532v88.694h-241c-4.142 0-7.5 3.358-7.5 7.5v112.226c0 12.976 10.557 23.532 23.532 23.532h24.578c-.001.173-.013.343-.013.516 0 35.077 28.537 63.613 63.613 63.613 35.077 0 63.613-28.537 63.613-63.613 0-.173-.012-.343-.013-.516h185.429c-.001.173-.013.343-.013.516 0 35.077 28.537 63.613 63.613 63.613s63.613-28.537 63.613-63.613c0-.173-.012-.343-.013-.516h8.545c8.556 0 15.516-6.96 15.516-15.516v-98.645c0-11.55-8.27-21.312-19.664-23.211zm-94.95-13.902h-85.274c-4.705 0-8.532-3.828-8.532-8.532v-48.613h71.827zm-285.677 200.404c-26.805 0-48.613-21.808-48.613-48.613s21.808-48.613 48.613-48.613c26.806 0 48.613 21.808 48.613 48.613.001 26.805-21.807 48.613-48.613 48.613zm312.63 0c-26.806 0-48.613-21.808-48.613-48.613s21.808-48.613 48.613-48.613 48.613 21.808 48.613 48.613-21.808 48.613-48.613 48.613zm72.661-64.646c0 .285-.231.516-.516.516h-10.454c-6.945-27.6-31.966-48.097-61.691-48.097s-54.746 20.497-61.691 48.097h-189.247c-6.945-27.6-31.966-48.097-61.691-48.097s-54.746 20.497-61.691 48.097h-26.487c-4.705 0-8.532-3.828-8.532-8.532v-104.726h233.5v88.693c0 4.142 3.358 7.5 7.5 7.5s7.5-3.358 7.5-7.5v-192.386c0-4.705 3.828-8.532 8.532-8.532h91.042l6.563 17.065h-73.558c-4.142 0-7.5 3.358-7.5 7.5v56.113c0 12.976 10.557 23.532 23.532 23.532h95.573l82.185 13.697c4.131.688 7.129 4.228 7.129 8.416v2.967h-24.564c-4.142 0-7.5 3.358-7.5 7.5v24.048c0 12.976 10.557 23.532 23.532 23.532h8.534zm0-55.597h-8.532c-4.705 0-8.532-3.828-8.532-8.532v-16.548h17.064z"/><path d="m392.274 240.485h-96.193c-4.142 0-7.5 3.358-7.5 7.5s3.358 7.5 7.5 7.5h96.193c4.142 0 7.5-3.358 7.5-7.5s-3.358-7.5-7.5-7.5z"/><path d="m440.371 240.485h-16.032c-4.142 0-7.5 3.358-7.5 7.5s3.358 7.5 7.5 7.5h16.032c4.142 0 7.5-3.358 7.5-7.5s-3.358-7.5-7.5-7.5z"/><path d="m223.936 240.485h-184.372c-4.142 0-7.5 3.358-7.5 7.5s3.358 7.5 7.5 7.5h184.371c4.142 0 7.5-3.358 7.5-7.5s-3.357-7.5-7.499-7.5z"/></g></svg>