<svg enable-background="new 0 0 480 480" height="512" viewBox="0 0 480 480" width="512" xmlns="http://www.w3.org/2000/svg"><g fill="#18d630"><path d="m472 296h-48v-248c0-4.418-3.582-8-8-8h-160c-4.418 0-8 3.582-8 8v248h-40v-40c-.04-35.33-28.67-63.96-64-64v-26.296c12.082-8.368 20.359-21.179 23.024-35.632l8.84-48.64c.089-.472.135-.952.136-1.432-.025-6.128-.947-12.219-2.736-18.08 1.722-1.487 2.72-3.645 2.736-5.92-.035-30.913-25.087-55.965-56-56h-16c-27.826.035-51.419 20.465-55.432 48h-24.568v16h26.136c-1.396 5.22-2.114 10.597-2.136 16 .001.48.047.96.136 1.432l8.8 48.64c2.679 14.458 10.97 27.268 23.064 35.632v26.296c-35.33.04-63.96 28.67-64 64v40h-8c-4.418 0-8 3.582-8 8v168c0 4.418 3.582 8 8 8h464c4.418 0 8-3.582 8-8v-168c0-4.418-3.582-8-8-8zm-160-240h48v24h-48zm-48 0h32v32c0 4.418 3.582 8 8 8h64c4.418 0 8-3.582 8-8v-32h32v112h-144zm96 128v24h-48v-24zm-96 0h32v32c0 4.418 3.582 8 8 8h64c4.418 0 8-3.582 8-8v-32h32v112h-144zm-72 72v40h-16v-40h-16v40h-40v-80l19.2 14.4 9.6-12.8-12.8-9.6h8c26.499.026 47.974 21.501 48 48zm-96-64v-18.528c10.4 3.371 21.6 3.371 32 0v18.528zm8-176h16c19.002.021 35.375 13.387 39.2 32h-94.4c3.825-18.613 20.198-31.979 39.2-32zm-40 63.304c.077-5.221 1.023-10.394 2.8-15.304h90.4c1.261 3.523 2.099 7.183 2.496 10.904l-20.12-10.064c-1.707-.851-3.662-1.063-5.512-.6l-69.6 17.408zm8.752 47.912-5.456-29.8 67.776-16.936 22.648 11.328-6.4 35.408c-3.945 21.696-24.73 36.086-46.426 32.142-16.362-2.975-29.167-15.78-32.142-32.142zm-40.752 128.784c.026-26.499 21.501-47.974 48-48h8l-12.8 9.6 9.6 12.8 19.2-14.4v80h-40v-40h-16v40h-16zm432 208h-448v-120h448zm0-136h-448v-16h8 440z"/><path d="m280 272h16v16h-16z"/><path d="m312 272h16v16h-16z"/><path d="m344 272h16v16h-16z"/><path d="m280 144h16v16h-16z"/><path d="m312 144h16v16h-16z"/><path d="m344 144h16v16h-16z"/></g></svg>