<svg height="512" viewBox="0 0 64 64" width="512" xmlns="http://www.w3.org/2000/svg"><g fill="#18d630"><path d="m10 44a3 3 0 1 0 3 3 3 3 0 0 0 -3-3zm0 4a1 1 0 1 1 1-1 1 1 0 0 1 -1 1z"/><path d="m24 44h-8a1 1 0 0 0 -1 1v4a1 1 0 0 0 1 1h8a1 1 0 0 0 1-1v-4a1 1 0 0 0 -1-1zm-1 4h-6v-2h6z"/><path d="m55 40h-2a3 3 0 0 1 -3-3v-8a3 3 0 0 0 3-3v-8a1 1 0 0 0 -1-1v-5a1 1 0 0 0 -1-1h-4a1 1 0 0 0 -1 1v5a1 1 0 0 0 -1 1v8a3 3 0 0 0 3 3v8a5.006 5.006 0 0 0 5 5h2a3 3 0 0 1 3 3v10a5.006 5.006 0 0 1 -5 5h-20a1 1 0 0 1 -1-1v-1a3 3 0 0 0 3-3v-1.3a6.8 6.8 0 0 0 2.944-1.744 6.919 6.919 0 0 0 2.056-4.956v-38a7.008 7.008 0 0 0 -7-7h-24a7.008 7.008 0 0 0 -7 7v38a7.008 7.008 0 0 0 7 7h18v1a3 3 0 0 0 3 3v1a3 3 0 0 0 3 3h20a7.008 7.008 0 0 0 7-7v-10a5.006 5.006 0 0 0 -5-5zm-7-27h2v4h-2zm-1 13v-7h4v7a1 1 0 0 1 -1 1h-2a1 1 0 0 1 -1-1zm-43-17a5.006 5.006 0 0 1 5-5h24a5.006 5.006 0 0 1 5 5v33.111a6.973 6.973 0 0 0 -5-2.111h-24a6.911 6.911 0 0 0 -4.944 2.049c-.02.02-.037.042-.056.061zm23 36v7h-18a5.006 5.006 0 0 1 -5-5 5.009 5.009 0 0 1 5-5h24a5.006 5.006 0 0 1 5 5 4.936 4.936 0 0 1 -1.471 3.537 4.858 4.858 0 0 1 -1.529 1.034v-6.571a1 1 0 0 0 -1-1h-6a1 1 0 0 0 -1 1zm2 10v-9h4v9a1 1 0 0 1 -1 1h-2a1 1 0 0 1 -1-1z"/><path d="m15 24h2.9l-.89 8.9a1 1 0 0 0 1.814.673l7-10a1 1 0 0 0 -.824-1.573h-1.895l.895-8.9a1 1 0 0 0 -1.776-.725l-8 10a1 1 0 0 0 .776 1.625zm6.669-7.735-.664 6.635a1 1 0 0 0 .995 1.1h1.079l-3.7 5.291.621-6.191a1 1 0 0 0 -1-1.1h-1.919z"/></g></svg>