<svg enable-background="new 0 0 512 512" height="512" viewBox="0 0 512 512" width="512" xmlns="http://www.w3.org/2000/svg"><g fill="#18d630"><path d="m298.667 25.6h-85.333c-4.71 0-8.533 3.823-8.533 8.533s3.823 8.533 8.533 8.533h85.333c4.71 0 8.533-3.823 8.533-8.533s-3.823-8.533-8.533-8.533z"/><path d="m358.4 25.6h-8.533c-4.71 0-8.533 3.823-8.533 8.533s3.823 8.533 8.533 8.533h8.533c4.71 0 8.533-3.823 8.533-8.533s-3.823-8.533-8.533-8.533z"/><path d="m266.598 435.2h-21.188c-12.979 0-23.543 10.564-23.543 23.543v4.122c0 12.979 10.564 23.535 23.535 23.535h21.188c12.979 0 23.543-10.556 23.543-23.535v-4.122c0-12.979-10.564-23.543-23.535-23.543zm6.469 27.665c0 3.567-2.901 6.468-6.468 6.468h-21.189c-3.575 0-6.477-2.901-6.477-6.468v-4.122c0-3.575 2.901-6.477 6.477-6.477h21.18c3.576 0 6.477 2.901 6.477 6.477z"/><path d="m370.227 0h-228.446c-17.007 0-30.848 13.841-30.848 30.848v450.304c0 17.007 13.841 30.848 30.848 30.848h228.437c17.007 0 30.848-13.841 30.848-30.839v-450.313c.001-17.007-13.84-30.848-30.839-30.848zm13.773 481.152c0 7.595-6.178 13.781-13.773 13.781h-228.446c-7.603 0-13.781-6.187-13.781-13.773v-450.312c0-7.595 6.178-13.781 13.781-13.781h228.437c7.603 0 13.781 6.187 13.781 13.781v450.304z"/><path d="m392.533 51.2h-273.066c-4.71 0-8.533 3.823-8.533 8.533v358.4c0 4.71 3.823 8.533 8.533 8.533h273.067c4.71 0 8.533-3.823 8.533-8.533v-358.4c0-4.71-3.823-8.533-8.534-8.533zm-8.533 358.4h-256v-341.333h256z"/></g></svg>