<svg enable-background="new 0 0 512 512" height="512" viewBox="0 0 512 512" width="512" xmlns="http://www.w3.org/2000/svg"><g fill="#18d630"><path d="m509.07 2.995c-1.86-1.861-4.44-2.93-7.069-2.93-2.63 0-5.209 1.07-7.069 2.93s-2.93 4.44-2.93 7.069c0 2.63 1.07 5.209 2.93 7.068 1.86 1.87 4.44 2.931 7.069 2.931 2.63 0 5.209-1.06 7.069-2.931 1.87-1.859 2.93-4.439 2.93-7.068s-1.06-5.209-2.93-7.069z"/><path d="m389.954 165.014h-37.063c4.439-6.82 7.028-14.947 7.028-23.674 0-24.003-19.528-43.531-43.531-43.531-15.915 0-29.856 8.59-37.449 21.373-6.303-5.03-14.281-8.048-22.954-8.048s-16.65 3.018-22.954 8.048c-7.592-12.783-21.533-21.373-37.449-21.373-24.003 0-43.531 19.528-43.531 43.531 0 8.725 2.59 16.852 7.028 23.673h-37.062c-13.243 0-24.016 10.773-24.016 24.017v34.959c0 8.866 4.832 16.619 11.999 20.78v164.21c0 18.751 15.255 34.006 34.007 34.006h223.957c18.751 0 34.006-15.255 34.006-34.006v-164.209c7.166-4.161 11.999-11.914 11.999-20.78v-34.959c.001-13.243-10.773-24.017-24.015-24.017zm-97.099-23.673c0-12.977 10.557-23.533 23.534-23.533s23.534 10.558 23.534 23.534-10.557 23.533-23.534 23.533h-23.534zm10.269 43.671 30.366 53.511-7.151-1.92c-2.564-.686-5.293-.329-7.591.998s-3.975 3.513-4.66 6.075l-1.749 6.534-36.672-65.199h27.457zm-47.137-53.879c9.303 0 16.871 7.567 16.871 16.87s-7.568 16.871-16.871 16.871-16.871-7.568-16.871-16.871 7.567-16.87 16.871-16.87zm-18.772 53.879-30.608 53.492-1.814-6.781c-.686-2.563-2.362-4.748-4.66-6.075-2.298-1.326-5.027-1.685-7.591-.998l-7.081 1.9 23.691-41.538zm-41.631-67.204c12.977 0 23.534 10.557 23.534 23.533v23.534h-23.534c-12.977 0-23.534-10.558-23.534-23.534s10.558-23.533 23.534-23.533zm-77.583 106.181v-34.958c0-2.216 1.803-4.019 4.019-4.019h64.11l-24.521 42.996h-39.589c-2.216 0-4.019-1.803-4.019-4.019zm155.983 198.999h-129.977c-7.724 0-14.008-6.284-14.008-14.009v-160.973h26.635c.118.175.217.358.347.526 2.465 3.194 6.609 4.593 10.507 3.548l20.571-5.52 5.504 20.576c1.047 3.915 4.354 6.81 8.371 7.332.432.056.863.083 1.291.083 3.552 0 6.879-1.895 8.676-5.032l6.087-10.639v101.116c0 5.521 4.477 9.999 9.999 9.999s9.999-4.478 9.999-9.999v-111.401h35.996v174.393zm-38.666-194.391 21.14-36.945 20.78 36.945zm146.655 180.382c0 7.724-6.284 14.009-14.009 14.009h-73.982v-164.619l12.958 23.039c1.786 3.175 5.133 5.097 8.712 5.097.416 0 .834-.025 1.254-.079 4.034-.509 7.357-3.409 8.408-7.336l5.504-20.576 20.572 5.52c3.894 1.045 8.034-.35 10.501-3.539s2.777-7.547.788-11.054l-.815-1.436h20.109zm11.999-184.989c0 2.216-1.803 4.019-4.019 4.019h-39.438l-24.398-42.996h63.836c2.216-.001 4.019 1.802 4.019 4.018z"/><path d="m235.059 389.415c-1.86-1.86-4.44-2.92-7.069-2.92-2.63 0-5.209 1.06-7.069 2.92s-2.93 4.44-2.93 7.079c0 2.63 1.07 5.209 2.93 7.069 1.86 1.859 4.44 2.93 7.069 2.93 2.63 0 5.209-1.07 7.069-2.93 1.86-1.87 2.93-4.44 2.93-7.069-.001-2.639-1.071-5.209-2.93-7.079z"/><path d="m482.825 29.248c-3.904-3.904-10.236-3.904-14.141 0l-91.782 91.784c-3.904 3.906-3.904 10.237 0 14.142 1.953 1.952 4.512 2.929 7.07 2.929s5.118-.977 7.07-2.929l91.783-91.784c3.905-3.905 3.905-10.236 0-14.142z"/><path d="m100.073 87.951-56.495-56.494c-3.905-3.904-10.236-3.904-14.142 0-3.905 3.905-3.905 10.236 0 14.142l56.495 56.494c1.953 1.952 4.512 2.929 7.07 2.929s5.118-.977 7.07-2.929c3.906-3.905 3.906-10.236.002-14.142z"/><path d="m95.53 417.46c-3.904-3.904-10.235-3.904-14.141 0l-77.448 77.449c-3.905 3.905-3.905 10.236 0 14.142 1.953 1.952 4.512 2.929 7.07 2.929s5.118-.977 7.07-2.929l77.449-77.449c3.905-3.905 3.905-10.236 0-14.142z"/><path d="m484.018 469.896-49.919-49.919c-3.905-3.904-10.236-3.904-14.141 0-3.905 3.905-3.905 10.236 0 14.142l49.919 49.919c1.953 1.952 4.512 2.929 7.07 2.929s5.118-.977 7.07-2.929c3.906-3.905 3.906-10.236.001-14.142z"/><path d="m66.493 246.006h-56.494c-5.522 0-9.999 4.478-9.999 9.999s4.477 9.999 9.999 9.999h56.494c5.522 0 9.999-4.477 9.999-9.999 0-5.521-4.476-9.999-9.999-9.999z"/><path d="m501.948 246.006h-57.036c-5.522 0-9.999 4.478-9.999 9.999s4.477 9.999 9.999 9.999h57.036c5.522 0 9.999-4.477 9.999-9.999 0-5.521-4.476-9.999-9.999-9.999z"/><path d="m255.987.021c-5.522 0-9.999 4.478-9.999 9.999v76.659c0 5.521 4.477 9.999 9.999 9.999s9.999-4.478 9.999-9.999v-76.66c-.001-5.521-4.477-9.998-9.999-9.998z"/><path d="m255.987 453.757c-5.522 0-9.999 4.478-9.999 9.999v38.225c0 5.521 4.477 9.999 9.999 9.999s9.999-4.478 9.999-9.999v-38.225c-.001-5.523-4.477-9.999-9.999-9.999z"/><path d="m501.961 353.875h-6.858c-5.522 0-9.999 4.478-9.999 9.999s4.477 9.999 9.999 9.999h6.858c5.522 0 9.999-4.478 9.999-9.999s-4.476-9.999-9.999-9.999z"/><path d="m453.445 353.875h-6.858c-5.522 0-9.999 4.478-9.999 9.999s4.477 9.999 9.999 9.999h6.858c5.522 0 9.999-4.478 9.999-9.999s-4.476-9.999-9.999-9.999z"/><path d="m474.274 374.703c-5.522 0-9.999 4.478-9.999 9.999v6.858c0 5.521 4.477 9.999 9.999 9.999s9.999-4.478 9.999-9.999v-6.858c0-5.522-4.477-9.999-9.999-9.999z"/><path d="m474.274 326.188c-5.522 0-9.999 4.478-9.999 9.999v6.858c0 5.521 4.477 9.999 9.999 9.999s9.999-4.477 9.999-9.999v-6.858c0-5.522-4.477-9.999-9.999-9.999z"/><path d="m66.445 159.03h-6.858c-5.522 0-9.999 4.478-9.999 9.999s4.477 9.999 9.999 9.999h6.858c5.522 0 9.999-4.477 9.999-9.999 0-5.521-4.476-9.999-9.999-9.999z"/><path d="m17.93 159.03h-6.858c-5.522 0-9.999 4.478-9.999 9.999s4.477 9.999 9.999 9.999h6.858c5.522 0 9.999-4.477 9.999-9.999 0-5.521-4.476-9.999-9.999-9.999z"/><path d="m38.759 179.859c-5.522 0-9.999 4.478-9.999 9.999v6.857c0 5.521 4.477 9.999 9.999 9.999s9.999-4.478 9.999-9.999v-6.857c0-5.523-4.477-9.999-9.999-9.999z"/><path d="m38.759 131.343c-5.522 0-9.999 4.478-9.999 9.999v6.857c0 5.521 4.477 9.999 9.999 9.999s9.999-4.478 9.999-9.999v-6.857c0-5.522-4.477-9.999-9.999-9.999z"/><path d="m373.64 19.696c-16.54 0-29.997 13.457-29.997 29.997s13.457 29.997 29.997 29.997 29.997-13.457 29.997-29.997-13.456-29.997-29.997-29.997zm0 39.996c-5.513 0-9.999-4.486-9.999-9.999s4.486-9.999 9.999-9.999 9.999 4.486 9.999 9.999-4.485 9.999-9.999 9.999z"/><path d="m43.019 333.877c-16.54 0-29.997 13.457-29.997 29.997s13.457 29.997 29.997 29.997 29.997-13.457 29.997-29.997-13.457-29.997-29.997-29.997zm0 39.996c-5.513 0-9.999-4.486-9.999-9.999s4.486-9.999 9.999-9.999 9.999 4.486 9.999 9.999-4.486 9.999-9.999 9.999z"/><path d="m380.714 466.688c-1.86-1.861-4.44-2.93-7.069-2.93-2.64 0-5.209 1.069-7.079 2.93-1.86 1.859-2.92 4.439-2.92 7.069s1.06 5.198 2.92 7.068c1.87 1.86 4.45 2.931 7.079 2.931s5.209-1.07 7.069-2.931c1.86-1.87 2.93-4.439 2.93-7.068-.001-2.63-1.071-5.21-2.93-7.069z"/><path d="m165.066 466.688c-1.86-1.861-4.44-2.93-7.069-2.93-2.63 0-5.209 1.069-7.069 2.93-1.86 1.859-2.93 4.43-2.93 7.069 0 2.63 1.07 5.198 2.93 7.068 1.86 1.86 4.44 2.931 7.069 2.931 2.63 0 5.209-1.07 7.069-2.931 1.86-1.87 2.93-4.439 2.93-7.068 0-2.64-1.07-5.21-2.93-7.069z"/><path d="m171.954 42.911c-1.86-1.859-4.44-2.93-7.069-2.93-2.63 0-5.209 1.07-7.069 2.93s-2.93 4.44-2.93 7.069c0 2.64 1.07 5.209 2.93 7.069 1.86 1.87 4.44 2.93 7.069 2.93 2.63 0 5.209-1.061 7.069-2.93 1.86-1.86 2.93-4.431 2.93-7.069 0-2.629-1.07-5.199-2.93-7.069z"/><path d="m480.553 155.949c-1.86-1.87-4.44-2.93-7.069-2.93-2.63 0-5.209 1.06-7.069 2.93-1.86 1.86-2.93 4.431-2.93 7.069 0 2.63 1.07 5.199 2.93 7.069 1.86 1.859 4.44 2.93 7.069 2.93 2.63 0 5.209-1.07 7.069-2.93 1.86-1.87 2.93-4.44 2.93-7.069 0-2.639-1.07-5.209-2.93-7.069z"/></g></svg>