<svg enable-background="new 0 0 512 512" height="512" viewBox="0 0 512 512" width="512" xmlns="http://www.w3.org/2000/svg"><g fill="#18d630"><path d="m112 356c-4.418 0-8 3.582-8 8 0 4.411-3.589 8-8 8s-8-3.589-8-8 3.589-8 8-8c4.418 0 8-3.582 8-8s-3.582-8-8-8c-13.234 0-24 10.767-24 24s10.766 24 24 24 24-10.767 24-24c0-4.418-3.582-8-8-8z"/><path d="m432 356c-4.418 0-8 3.582-8 8 0 4.411-3.589 8-8 8s-8-3.589-8-8 3.589-8 8-8c4.418 0 8-3.582 8-8s-3.582-8-8-8c-13.234 0-24 10.767-24 24s10.766 24 24 24 24-10.767 24-24c0-4.418-3.582-8-8-8z"/><path d="m512 252c0-2.231-.915-4.247-2.388-5.698-3.421-9.455-10.352-17.394-19.723-22.08-.25-.125-.505-.236-.767-.334l-26.439-9.925-16.106-61.195c-.023-.088-.047-.176-.074-.263-5.114-17.049-20.511-28.505-38.312-28.505h-56.191v-16c0-8.822-7.178-16-16-16h-320c-8.822 0-16 7.178-16 16v224c0 8.822 7.178 16 16 16h26.341c-.775 2.594-1.368 5.265-1.761 8h-32.58c-4.418 0-8 3.582-8 8s3.582 8 8 8h32.581c3.895 27.102 27.258 48 55.419 48s51.525-20.898 55.419-48h16.581c0 13.233 10.766 24 24 24h48c13.234 0 24-10.767 24-24h96.581c3.895 27.102 27.258 48 55.419 48s51.525-20.898 55.419-48h32.581c4.418 0 8-3.582 8-8s-3.582-8-8-8h-32.581c-.393-2.735-.986-5.406-1.761-8h26.342c8.822 0 16-7.178 16-16v-72c0-1.88-.131-3.735-.383-5.558.247-.77.383-1.59.383-2.442zm-16 48h-8v-8h8zm-6.101-56h-137.899v-16h102.549l28.531 10.71c2.628 1.367 4.918 3.171 6.819 5.29zm-81.708-104c10.638 0 19.846 6.819 22.951 16.982l14.48 55.018h-93.622v-72zm-360.19 192h-32.001v-40h248.004c4.418 0 8-3.582 8-8s-3.582-8-8-8h-248.004v-168h320v224h-96-48-47.998c-.661 0-1.3.089-1.915.24-10.112-14.63-26.995-24.24-46.087-24.24s-35.974 9.61-46.087 24.24c-.614-.151-1.252-.24-1.912-.24zm47.999 72c-22.056 0-40-17.944-40-40s17.944-40 40-40 40 17.944 40 40-17.944 40-40 40zm55.419-48c-.393-2.735-.986-5.406-1.761-8h19.718c-.888 2.504-1.376 5.196-1.376 8zm96.581 16c0 4.411-3.589 8-8 8h-48c-4.411 0-8-3.589-8-8v-7.981c0-.007.001-.013.001-.019s-.001-.013-.001-.019v-7.981c0-4.411 3.589-8 8-8h48c4.411 0 8 3.589 8 8zm14.624-24h81.376 18.341c-.775 2.594-1.368 5.265-1.761 8h-96.58c0-2.804-.488-5.496-1.376-8zm153.376 56c-22.056 0-40-17.944-40-40s17.944-40 40-40 40 17.944 40 40-17.944 40-40 40zm48-72c-.66 0-1.299.089-1.913.24-10.113-14.63-26.995-24.24-46.087-24.24s-35.974 9.61-46.087 24.24c-.614-.151-1.252-.24-1.912-.24h-16v-72h144v16h-8c-8.822 0-16 7.178-16 16v8c0 8.822 7.178 16 16 16h8v16z"/><path d="m200 356c-2.11 0-4.17.859-5.66 2.34-1.49 1.49-2.34 3.56-2.34 5.66 0 2.109.85 4.17 2.34 5.66 1.49 1.489 3.55 2.34 5.66 2.34s4.17-.851 5.66-2.34c1.49-1.49 2.34-3.561 2.34-5.66 0-2.101-.85-4.17-2.34-5.66-1.49-1.481-3.55-2.34-5.66-2.34z"/><path d="m296.004 292h15.996c4.418 0 8-3.582 8-8s-3.582-8-8-8h-15.996c-4.418 0-8 3.582-8 8s3.581 8 8 8z"/></g></svg>