<svg enable-background="new 0 0 511.999 511.999" height="512" viewBox="0 0 511.999 511.999" width="512" xmlns="http://www.w3.org/2000/svg"><g fill="#18d630"><path d="m242.105 141.337-66.398-38.335 22.628-2.899c14.766-1.489 21.467-12.56 21.443-22.241-.03-11.646-8.361-20.871-19.825-21.965-72.99-8.182-77.512-9.853-91.424-6.135-.099.026-12.488 3.414-12.486 3.413-7.234 1.972-24.204-10.588-29.092-12.778-1.184-.532-6.585-4.182-13.614-4.182-10.868 0-15.965 8.336-16.538 9.333-20.12 35.639-13.064 23.285-32.992 57.803-7.776 13.472-2.668 25.728 6.645 31.031v-.001s1.918 1.107 1.924 1.111c12.273 7.919 22.395 10.512 25.81 18.847l4.013 12.792c1.785 5.657 7.608 13.82 17.455 19.492 103.897 59.883 97.321 57.488 105.432 57.488 10.387 0 19.404-7.323 21.517-17.509l4.7 2.713c13.846 7.995 31.181-1.084 32.811-16.705 18.568 1.742 30.875-19.225 19.969-34.587 12.887-9.379 11.701-28.805-1.978-36.686zm-14.664 24.782-74.282-42.888c-3.595-2.077-8.193-.845-10.268 2.751-2.076 3.595-.844 8.193 2.751 10.268 92.147 53.202 86.218 48.981 87.216 52.704 1.589 5.937-4.818 10.868-10.147 7.788-6.298-3.637-71.458-41.257-83.993-48.495-3.595-2.077-8.193-.844-10.268 2.751s-.844 8.193 2.751 10.268l74.541 43.036c.001 0 .001.001.003.001 6.106 3.534 3.572 12.918-3.479 12.918-2.461 0-1.356.279-26.194-14.061 0 0 0 0-.001-.001-.002-.001-.005-.002-.007-.004l-51.787-29.901c-3.595-2.076-8.193-.844-10.268 2.751s-.844 8.193 2.751 10.268c.007.004 51.799 29.908 51.806 29.913 3.273 1.896 4.436 6.105 2.517 9.43-1.86 3.22-6.06 4.48-9.441 2.529-101.667-58.698 19.125 10.927-94.484-54.551-11.478-6.613-10.854-12.981-14.769-24.19-.369-1.051-3.895-10.438-13.837-16.168-28.285-16.3-12.607-7.273-20.617-11.897-4.081-2.322-3.444-6.433-1.106-10.483 19.966-34.578 12.914-22.235 32.973-57.766 6.2-8.987 29.232 20.314 50.199 14.587 31.213-8.532 16.173-4.9 98.488 3.183 4.922.452 6.245 4.638 6.251 7.04.012 4.767-3.526 6.675-8.212 7.278l-44.826 5.742c-7.116.911-9.017 10.379-2.803 13.966 93.496 53.98 87.899 49.874 88.926 53.657 1.524 5.627-4.442 11.001-10.384 7.576z"/><path d="m509.7 106.633c-.089-.184-.185-.364-.29-.54-2.549-4.319-10.376-17.322-34.15-58.503-6.299-10.908-17.969-13.987-29.732-7.843-.094.049-.186.1-.278.153l-1.182.683c-.137.071-.267.141-.368.201l-10.645 6.156c-3.594 2.078-4.824 6.676-2.745 10.269 2.08 3.594 6.678 4.822 10.27 2.745 13.129-7.592 17.749-11.62 21.66-4.847 20.648 35.766 13.649 23.778 32.807 56.23 4.055 6.964 2.057 8.028-9.616 14.597-26.234 14.771-24.609 17.773-29.697 36.851-4.607 15.175-13.833 22.44-48.739 71.284-2.852 4.036-7.141 3.089-9.223 1.894-4.105-2.356-4.034-6.341-2.196-10.75l17.44-41.691c2.768-6.616-4.476-12.998-10.693-9.411-92.938 53.658-87.043 51.216-90.931 50.181-5.856-1.549-6.976-9.535-1.652-12.617l74.568-43.05c3.595-2.076 4.827-6.673 2.751-10.268-2.075-3.596-6.674-4.828-10.268-2.751-100.062 57.77-42.942 24.78-83.997 48.489-3.307 1.907-7.547.772-9.457-2.535-1.912-3.314-.78-7.544 2.534-9.457 13.906-8.028 75.552-43.62 83.992-48.494 3.595-2.076 4.827-6.673 2.751-10.268-2.077-3.596-6.674-4.828-10.268-2.751l-74.541 43.037c-3.308 1.904-7.547.768-9.456-2.537-1.912-3.31-.781-7.54 2.535-9.455 39.131-22.593 23.11-13.343 74.541-43.035 3.595-2.076 4.827-6.673 2.751-10.268-2.075-3.596-6.671-4.828-10.268-2.751l-51.808 29.909c-3.294 1.895-7.522.762-9.425-2.535-1.904-3.3-.77-7.534 2.531-9.44 128.51-74.201-34.092 19.807 94.484-54.55 6.921-4.003 12.338-4.032 15.072-3.653l1.336.299c4.055.906 8.071-1.647 8.974-5.698.905-4.051-1.647-8.069-5.698-8.974-.383-.085-1.703-.389-2.087-.449-4.615-.716-14.018-.96-25.125 5.462-40.522 23.434-53.944 31.143-94.474 54.544-10.479 6.05-14.084 19.496-8.035 29.976 1.207 2.09 2.708 3.906 4.42 5.426l-4.706 2.718c-13.657 7.883-14.875 27.375-1.947 36.763-10.879 15.336 1.344 36.313 19.966 34.58 1.655 15.847 19.094 24.556 32.768 16.644l66.396-38.334-8.802 21.043c-12.008 26.674 22.466 44.588 37.477 23.502 43.017-58.355 47.381-62.247 51.033-76.14h-.001c.095-.359.573-2.176 3.278-12.485 1.075-4.089 7.209-8.165 13.017-11.582 0 0 13.264-7.656 13.265-7.657 13.596-7.875 14.019-19.791 9.883-28.317z"/><path d="m325.174 332.145c4.152 0 7.517-3.365 7.517-7.517v-40.824c.003-14.874-14.622-25.561-28.851-20.828v-5.437c0-15.844-16.387-26.527-30.875-20.064-7.843-17.045-32.072-17.053-39.919-.003-14.452-6.45-30.81 4.216-30.799 20.055v76.671l-13.823-18.146c-16.977-23.575-49.932-3.029-39.092 20.703 34.878 79.817 28.107 70.066 49.597 91.351 3.001 2.972 3.465 10.325 3.522 17.061-.001.275-.049 10.463-.039 10.734.371 9.17 6.078 19.878 20.943 19.878 74.126 0 70.108.027 70.753-.048 8.675-.979 17.945-7.145 17.945-21.543-.012-25.591-1.532-21.18 12.485-36.431 3.899-4.246 8.164-13.328 8.154-24.863l-.024-33.194c-.003-4.149-3.368-7.511-7.517-7.511-4.153 0-7.52 3.368-7.517 7.523l.024 33.195c.008 7.998-2.673 12.701-4.371 14.876l-9.023 9.816c-2.767 3.007-7.26 10.957-7.253 20.258.009 18.4 1.092 22.151-4.21 22.887h-69.447c-7.199 0-5.919-4.205-5.868-15.644-.084-9.652-.777-20.546-7.978-27.678-18.895-18.714-12.22-8.469-46.427-86.75-1.74-3.993-.122-7.31 2.911-9.072 4.109-2.386 7.568-.288 10.407 3.474l27.385 35.951c1.954 2.566 5.326 3.597 8.384 2.567 3.056-1.031 5.114-3.898 5.114-7.122v-98.951c-.003-3.805 3.072-6.903 6.852-6.906 3.803-.003 6.905 3.088 6.908 6.895v86.099c0 4.152 3.366 7.517 7.517 7.517s7.516-3.365 7.516-7.517c0-43.502.007-94.89.007-96.988 0-3.818 3.106-6.923 6.923-6.923s6.922 3.106 6.922 6.923v96.988c0 4.152 3.365 7.517 7.517 7.517s7.517-3.365 7.517-7.517v-86.071c0-3.818 3.106-6.923 6.922-6.923 3.817 0 6.922 3.106 6.922 6.923v24.164 2.104 59.806c0 4.152 3.365 7.517 7.517 7.517s7.517-3.365 7.517-7.517v-59.806c0-3.81 3.101-6.909 6.913-6.909 3.809 0 6.907 3.099 6.907 6.909v40.824c-.002 4.153 3.362 7.517 7.515 7.517z"/></g></svg>