<svg enable-background="new 0 0 512 512" height="512" viewBox="0 0 512 512" width="512" xmlns="http://www.w3.org/2000/svg"><g fill="#18d630"><path d="m497.287 170.667h-256v-111.816h29.425v73.563c0 4.875 3.951 8.828 8.828 8.828s8.828-3.952 8.828-8.828v-76.506c0-8.113-6.599-14.713-14.713-14.713h-35.31c-8.113 0-14.713 6.6-14.713 14.713v114.759h-208.919c-8.114 0-14.713 6.599-14.713 14.712v82.391c0 8.113 6.599 14.713 14.713 14.713h21.632l22.574 180.589c.552 4.417 4.308 7.733 8.759 7.733h376.644c4.451 0 8.207-3.314 8.759-7.733l17.655-141.241c.605-4.838-2.827-9.249-7.665-9.854-4.846-.606-9.249 2.826-9.855 7.665l-16.688 133.508h-361.057l-21.333-170.667h443.15c8.113 0 14.713-6.599 14.713-14.713v-82.391c-.001-8.113-6.6-14.712-14.714-14.712zm-282.005 94.161h-197.627v-76.506h197.627c-9.409 10.009-15.19 23.465-15.19 38.253s5.781 28.243 15.19 38.253zm40.718 0c-21.092 0-38.253-17.161-38.253-38.253s17.161-38.253 38.253-38.253c21.093 0 38.253 17.161 38.253 38.253s-17.16 38.253-38.253 38.253zm238.345 0h-197.627c9.409-10.009 15.19-23.465 15.19-38.253s-5.781-28.244-15.19-38.253h197.627z"/><path d="m256 211.862c-8.113 0-14.713 6.599-14.713 14.713s6.599 14.713 14.713 14.713 14.713-6.599 14.713-14.713-6.6-14.713-14.713-14.713z"/><path d="m247.172 320.736v94.161c0 4.875 3.952 8.828 8.828 8.828s8.828-3.952 8.828-8.828v-94.161c0-4.875-3.951-8.828-8.828-8.828-4.875 0-8.828 3.952-8.828 8.828z"/><path d="m148.974 311.976c-4.838.605-8.27 5.016-7.665 9.854l11.77 94.161c.558 4.466 4.361 7.734 8.749 7.734.365 0 .734-.023 1.105-.069 4.838-.605 8.27-5.016 7.665-9.854l-11.77-94.161c-.605-4.838-5.02-8.274-9.854-7.665z"/><path d="m353.172 319.641-11.77 94.161c-.605 4.838 2.827 9.249 7.665 9.854.372.047.742.069 1.106.069 4.387 0 8.19-3.267 8.749-7.734l11.77-94.161c.605-4.838-2.827-9.249-7.665-9.854-4.841-.606-9.251 2.826-9.855 7.665z"/></g></svg>