<svg enable-background="new 0 0 44 44" height="512" viewBox="0 0 44 44" width="512" xmlns="http://www.w3.org/2000/svg"><g fill="#18d630" fill-rule="evenodd"><path d="m22 0c-12.15 0-22 9.85-22 22s9.85 22 22 22 22-9.85 22-22-9.85-22-22-22zm0 42c-11.046 0-20-8.954-20-20s8.954-20 20-20c11.045 0 20 8.954 20 20s-8.955 20-20 20zm1-37h-2c-1.104 0-2 .896-2 2v23c0 1.104.896 2 2 2h2c1.104 0 2-.896 2-2v-23c0-1.104-.896-2-2-2zm0 25h-2v-23h2z"/><path d="m22 34c-1.657 0-3 1.343-3 3s1.343 3 3 3 3-1.343 3-3-1.343-3-3-3zm0 4c-.552 0-1-.448-1-1 0-.553.448-1 1-1s1 .447 1 1c0 .552-.448 1-1 1z"/></g></svg>