<svg enable-background="new 0 0 512 512" height="512" viewBox="0 0 512 512" width="512" xmlns="http://www.w3.org/2000/svg"><g fill="#18d630"><path d="m437.019 74.981c-48.352-48.352-112.639-74.981-181.019-74.981s-132.667 26.629-181.019 74.981-74.981 112.639-74.981 181.019c0 51.582 15.212 101.126 44.038 143.582l-43.39 101.243c-2.843 6.632 4.272 13.513 10.815 10.396l96.843-46.115c43.352 30.696 94.312 46.894 147.694 46.894 68.38 0 132.667-26.628 181.019-74.981 48.353-48.351 74.981-112.639 74.981-181.019s-26.628-132.667-74.981-181.019zm-181.019 420.986c-51.553 0-100.69-16.112-142.1-46.596-2.356-1.735-5.558-2.039-8.199-.781l-81.945 39.02 36.766-85.784c1.096-2.558.788-5.501-.816-7.775-28.571-40.551-43.673-88.287-43.673-138.051 0-132.318 107.649-239.967 239.967-239.967s239.967 107.649 239.967 239.967-107.649 239.967-239.967 239.967z"/><path d="m397.05 96.066c-3.318-2.931-8.385-2.613-11.315.706s-2.613 8.385.705 11.315c42.433 37.451 66.771 91.363 66.771 147.913 0 108.743-88.469 197.211-197.211 197.211-108.743 0-197.211-88.468-197.211-197.211s88.468-197.211 197.211-197.211c34.673 0 68.768 9.122 98.6 26.379 3.833 2.218 8.737.907 10.954-2.926s.908-8.736-2.924-10.954c-32.271-18.665-69.143-28.532-106.63-28.532-117.584 0-213.244 95.66-213.244 213.244s95.66 213.244 213.244 213.244 213.244-95.66 213.244-213.244c0-61.148-26.314-119.441-72.194-159.934z"/><path d="m392.149 342.917-7.689-41.647c-.595-3.225-3.096-5.762-6.311-6.406l-60.465-12.092c-2.628-.522-5.346.299-7.241 2.194l-24.826 24.827c-41.844-18.678-64.966-41.848-85.333-85.484l24.751-24.751c1.895-1.895 2.718-4.612 2.192-7.241l-12.092-60.466c-.643-3.216-3.181-5.716-6.406-6.312l-41.647-7.689c-1.07-.198-2.17-.175-3.231.066-10.898 2.477-20.843 7.97-28.756 15.884-13.703 13.703-18.937 33.724-15.134 57.897 3.465 22.03 10.454 45.99 19.678 67.467 1.748 4.069 6.463 5.951 10.53 4.202 4.068-1.748 5.949-6.461 4.202-10.53-8.713-20.284-15.308-42.883-18.572-63.631-3.015-19.171.562-33.997 10.633-44.068 5.399-5.4 12.091-9.253 19.436-11.207l34.612 6.39 10.187 50.934-25.652 25.652c-2.349 2.349-3.007 5.903-1.651 8.937 23.32 52.224 50.677 79.559 100.937 100.858 3.01 1.273 6.487.596 8.797-1.713l25.651-25.652 50.933 10.187 6.391 34.612c-1.953 7.343-5.807 14.035-11.206 19.436-10.072 10.07-24.901 13.648-44.069 10.632-38.321-6.029-91.477-24.633-125.737-58.757l-.492-.493c-9.305-9.341-17.968-20.672-25.75-33.68-2.271-3.799-7.194-5.037-10.995-2.764-3.8 2.272-5.037 7.196-2.764 10.995 8.451 14.128 17.921 26.497 28.178 36.797l.496.494c36.988 36.842 93.768 56.828 134.571 63.246 16.27 2.56 33.749 1.36 48.085-7.402 3.563-2.177 6.86-4.779 9.812-7.731 7.915-7.916 13.408-17.86 15.883-28.758.24-1.063.262-2.163.064-3.233z"/></g></svg>