<svg enable-background="new 0 0 504.161 504.161" height="512" viewBox="0 0 504.161 504.161" width="512" xmlns="http://www.w3.org/2000/svg"><g fill="#18d630"><path d="m344.131 268.867c-4.636 0-8.393 3.758-8.393 8.393v201.443c0 4.636-3.758 8.393-8.393 8.393h-302.165c-4.636 0-8.393-3.758-8.393-8.393v-453.246c0-4.636 3.758-8.393 8.393-8.393h302.164c4.636 0 8.393 3.758 8.393 8.393v50.361c0 4.636 3.758 8.393 8.393 8.393s8.393-3.758 8.393-8.393v-50.361c0-13.907-11.274-25.18-25.18-25.18h-302.163c-13.906 0-25.18 11.274-25.18 25.18v453.246c0 13.907 11.274 25.18 25.18 25.18h302.164c13.907 0 25.18-11.274 25.18-25.18v-201.442c.001-4.636-3.757-8.394-8.393-8.394z"/><path d="m491.869 28.793c-16.339-16.338-42.81-16.396-59.22-.13l.017-.008-55.262 55.254-288.971 288.987c-.084.076-.109.185-.185.26-.664.691-1.203 1.492-1.595 2.367l-.067.143-35.546 82.944c-1.112 2.593-.846 5.571.707 7.927s4.185 3.773 7.007 3.774c1.137.002 2.263-.229 3.307-.68l82.936-35.546.143-.067c.877-.388 1.678-.928 2.367-1.595.076-.076.185-.101.26-.185l288.978-288.961 55.254-55.262c16.266-16.411 16.208-42.883-.13-59.222zm-417.167 417.176 22.461-52.409 29.948 29.948zm67.147-31.534-35.613-35.613 277.11-277.101 35.605 35.605zm288.97-288.978-35.605-35.605 13.707-13.715 35.613 35.613zm49.328-49.278-.042-.008-23.745 23.745-35.571-35.647 23.745-23.703c6.362-6.362 15.634-8.846 24.324-6.518 8.69 2.329 15.478 9.116 17.807 17.807 2.328 8.69-.156 17.962-6.518 24.324z"/><path d="m276.984 75.818h-201.443c-4.636 0-8.393 3.758-8.393 8.393s3.758 8.393 8.393 8.393h201.443c4.636 0 8.393-3.758 8.393-8.393s-3.758-8.393-8.393-8.393z"/><path d="m285.377 134.572c0-4.636-3.758-8.393-8.393-8.393h-201.443c-4.636 0-8.393 3.758-8.393 8.393s3.758 8.393 8.393 8.393h201.443c4.635.001 8.393-3.757 8.393-8.393z"/><path d="m75.541 176.539c-4.636 0-8.393 3.758-8.393 8.393s3.758 8.393 8.393 8.393h151.082c4.636 0 8.393-3.758 8.393-8.393s-3.758-8.393-8.393-8.393z"/></g></svg>